<svg xmlns="http://www.w3.org/2000/svg" xmlns:xlink="http://www.w3.org/1999/xlink" xmlns:inkscape="http://www.inkscape.org/namespaces/inkscape" version="1.1" width="107.7168" height="113.3858" viewBox="0 0 107.7168 113.3858">
<rect x="0" y="0" width="107.7168" height="113.3858" fill="#FFFFFF"/>

<g inkscape:groupmode="layer" inkscape:label="&#x56FE;&#x5C42; 1">
<path transform="matrix(1,0,0,-1,0,113.3858)" d="M53.8583 76.2514C51.51 76.2514 49.6063 78.1554 49.6063 80.5034 49.6063 82.8513 51.51 84.7553 53.8583 84.7553 56.2062 84.7553 58.1102 82.8513 58.1102 80.5034 58.1102 78.1554 56.2062 76.2514 53.8583 76.2514ZM53.8583 89.2913C35.8554 89.2913 21.2604 74.6955 21.2604 56.6918 21.2604 38.6887 35.8554 24.0948 53.8583 24.0948 71.8622 24.0948 86.4561 38.6887 86.4561 56.6918 86.4561 74.6955 71.8622 89.2913 53.8583 89.2913" fill="#ebcd7b" fill-rule="evenodd"/>
</g>
</svg>
