<svg xmlns="http://www.w3.org/2000/svg" xmlns:xlink="http://www.w3.org/1999/xlink" xmlns:inkscape="http://www.inkscape.org/namespaces/inkscape" version="1.1" width="107.7168" height="113.3858" viewBox="0 0 107.7168 113.3858">
<rect x="0" y="0" width="107.7168" height="113.3858" fill="#FFFFFF"/>

<g inkscape:groupmode="layer" inkscape:label="&#x56FE;&#x5C42; 1">
<path transform="matrix(1,0,0,-1,0,113.3858)" d="M18.2353 55.783C18.7951 56.2728 18.7951 57.1127 18.2353 57.6028 15.6455 59.9822 14.106 63.3416 14.1758 66.981 14.3158 73.7697 20.0548 79.2986 27.1933 79.5087 32.9323 79.6487 37.3416 76.989 39.0912 73.3499 39.3012 72.7897 39.8611 72.4399 40.4909 72.4399H44.7602C45.4601 72.4399 46.1599 72.8597 46.51 73.4896 48.2596 76.5692 50.849 78.5288 53.8586 78.5288 56.7981 78.5288 59.4575 76.5692 61.2071 73.4896 61.5572 72.8597 62.187 72.4399 62.9569 72.4399H67.2262C67.856 72.4399 68.4159 72.7897 68.6259 73.3499 70.4455 76.989 74.7848 79.6487 80.5235 79.5087 87.5923 79.3687 93.4013 73.7697 93.541 66.981 93.6111 63.2716 92.0015 59.9122 89.4818 57.6028 88.922 57.1127 88.922 56.2728 89.4818 55.783 92.0716 53.4036 93.6111 50.114 93.541 46.4049 93.4013 39.6162 87.5923 34.0872 80.5235 33.8771 76.8144 33.7371 69.8156 36.6766 67.9958 40.8759 67.786 41.4357 67.2262 41.7855 66.5963 41.7855H54.4184 51.7589 41.1908C40.5609 41.7855 40.0011 41.4357 39.7911 40.8759 37.9715 36.6066 30.9728 33.7371 27.2633 33.8771 20.1949 34.0872 14.3858 39.6162 14.2458 46.4049 14.106 50.114 15.7156 53.4036 18.2353 55.783ZM53.8756 74.4282C56.3428 74.4282 58.2182 72.1582 57.7247 69.5917 57.4285 68.1114 56.3428 66.9271 54.8626 66.6309 52.198 65.9401 49.8291 67.9139 49.8291 70.4801 49.9277 72.6514 51.7042 74.4282 53.8756 74.4282" fill="#dabf9b" fill-rule="evenodd"/>
</g>
</svg>
