<svg xmlns="http://www.w3.org/2000/svg" xmlns:xlink="http://www.w3.org/1999/xlink" xmlns:inkscape="http://www.inkscape.org/namespaces/inkscape" version="1.1" width="107.7168" height="113.3858" viewBox="0 0 107.7168 113.3858">
<rect x="0" y="0" width="107.7168" height="113.3858" fill="#FFFFFF"/>

<g inkscape:groupmode="layer" inkscape:label="&#x56FE;&#x5C42; 1">
<path transform="matrix(1,0,0,-1,0,113.3858)" d="M18.2353 55.7827C18.7951 56.2725 18.7951 57.1124 18.2353 57.6026 15.6455 59.982 14.106 63.3413 14.1758 66.9807 14.3158 73.7694 20.0548 79.2984 27.1933 79.5084 32.9323 79.6484 37.3416 76.9887 39.0912 73.3496 39.3012 72.7894 39.8611 72.4397 40.4909 72.4397H44.7602C45.4601 72.4397 46.1599 72.8595 46.51 73.4893 48.2596 76.5689 50.849 78.5285 53.8586 78.5285 56.7981 78.5285 59.4575 76.5689 61.2071 73.4893 61.5572 72.8595 62.187 72.4397 62.9569 72.4397H67.2262C67.856 72.4397 68.4159 72.7894 68.6259 73.3496 70.4455 76.9887 74.7848 79.6484 80.5235 79.5084 87.5923 79.3684 93.4013 73.7694 93.541 66.9807 93.6111 63.2713 92.0015 59.9119 89.4818 57.6026 88.922 57.1124 88.922 56.2725 89.4818 55.7827 92.0716 53.4033 93.6111 50.1137 93.541 46.4046 93.4013 39.6159 87.5923 34.0869 80.5235 33.8769 76.8144 33.7368 69.8156 36.6763 67.9958 40.8756 67.786 41.4354 67.2262 41.7852 66.5963 41.7852H54.4184 51.7589 41.1908C40.5609 41.7852 40.0011 41.4354 39.7911 40.8756 37.9715 36.6063 30.9728 33.7368 27.2633 33.8769 20.1949 34.0869 14.3858 39.6159 14.2458 46.4046 14.106 50.1137 15.7156 53.4033 18.2353 55.7827ZM53.8756 74.4279C56.3428 74.4279 58.2182 72.1579 57.7247 69.5914 57.4285 68.1111 56.3428 66.9268 54.8626 66.6306 52.198 65.9398 49.8291 67.9136 49.8291 70.4798 49.9277 72.6511 51.7042 74.4279 53.8756 74.4279" fill="#231916" fill-rule="evenodd"/>
</g>
</svg>
