<svg xmlns="http://www.w3.org/2000/svg" xmlns:xlink="http://www.w3.org/1999/xlink" xmlns:inkscape="http://www.inkscape.org/namespaces/inkscape" version="1.1" width="107.7168" height="113.3858" viewBox="0 0 107.7168 113.3858">
<rect x="0" y="0" width="107.7168" height="113.3858" fill="#FFFFFF"/>

<g inkscape:groupmode="layer" inkscape:label="&#x56FE;&#x5C42; 1">
<path transform="matrix(1,0,0,-1,0,113.3858)" d="M18.235 55.7827C18.7948 56.2725 18.7948 57.1124 18.235 57.6026 15.6453 59.982 14.1058 63.3413 14.1755 66.9807 14.3155 73.7694 20.0546 79.2984 27.193 79.5084 32.9321 79.6484 37.3414 76.9887 39.0909 73.3496 39.3009 72.7894 39.8608 72.4397 40.4906 72.4397H44.7599C45.4598 72.4397 46.1597 72.8595 46.5097 73.4893 48.2593 76.5689 50.8487 78.5285 53.8583 78.5285 56.7978 78.5285 59.4573 76.5689 61.2068 73.4893 61.5569 72.8595 62.1867 72.4397 62.9566 72.4397H67.2259C67.8557 72.4397 68.4156 72.7894 68.6256 73.3496 70.4452 76.9887 74.7845 79.6484 80.5232 79.5084 87.592 79.3684 93.401 73.7694 93.5408 66.9807 93.6108 63.2713 92.0013 59.9119 89.4815 57.6026 88.9217 57.1124 88.9217 56.2725 89.4815 55.7827 92.0713 53.4033 93.6108 50.1137 93.5408 46.4046 93.401 39.6159 87.592 34.0869 80.5232 33.8769 76.8141 33.7368 69.8153 36.6763 67.9955 40.8756 67.7857 41.4354 67.2259 41.7852 66.596 41.7852H54.4181 51.7586 41.1905C40.5607 41.7852 40.0008 41.4354 39.7908 40.8756 37.9712 36.6063 30.9725 33.7368 27.2631 33.8769 20.1946 34.0869 14.3855 39.6159 14.2455 46.4046 14.1058 50.1137 15.7153 53.4033 18.235 55.7827" fill="#ebcd7b" fill-rule="evenodd"/>
<path transform="matrix(1,0,0,-1,0,113.3858)" d="M53.8753 74.4279C56.3426 74.4279 58.218 72.1579 57.7244 69.5914 57.4282 68.1111 56.3426 66.9268 54.8623 66.6306 52.1977 65.9398 49.8288 67.9136 49.8288 70.4798 49.9275 72.6511 51.7039 74.4279 53.8753 74.4279" fill="#ebcd7b" fill-rule="evenodd"/>
</g>
</svg>
