<svg xmlns="http://www.w3.org/2000/svg" xmlns:xlink="http://www.w3.org/1999/xlink" xmlns:inkscape="http://www.inkscape.org/namespaces/inkscape" version="1.1" width="107.7168" height="113.3858" viewBox="0 0 107.7168 113.3858">
<rect x="0" y="0" width="107.7168" height="113.3858" fill="#FFFFFF"/>

<g inkscape:groupmode="layer" inkscape:label="&#x56FE;&#x5C42; 1">
<path transform="matrix(1,0,0,-1,0,113.3858)" d="M53.1411 26.0637C52.1643 26.5935 49.2891 28.3859 47.5971 29.5279 37.0689 36.6335 28.8748 45.2279 24.6396 53.6043 21.5895 59.6381 20.6022 65.3749 21.6845 70.795 22.2928 73.8439 23.58 76.6341 25.5512 79.1685 26.1462 79.9347 27.5202 81.3685 28.2991 82.0395 30.7882 84.1793 33.6359 85.5397 36.5981 86.0012 37.4871 86.1384 39.547 86.1372 40.7744 85.9989 43.1586 85.7276 45.2503 85.1196 47.0968 84.1527 48.9467 86.2464 51.2629 87.4925 53.7772 87.4925 56.3199 87.4925 58.6604 86.2186 60.5203 84.0815 62.2718 85.0153 64.2464 85.6375 66.4183 85.9303 67.3603 86.0573 68.2421 86.1219 69.0829 86.1228 70.5818 86.1245 71.9512 85.9235 73.3014 85.5145 77.4652 84.2528 81.5536 80.8101 83.9293 76.5652 85.2565 74.1954 86.0066 71.8112 86.3762 68.8028 86.487 67.8458 86.487 64.9344 86.3532 63.8838 86.038 61.3157 85.4614 59.095 84.4713 56.5917 80.3217 46.1188 69.6827 35.0597 55.7433 26.7256L54.6049 26.0447C54.258 25.829 53.5433 25.8517 53.1411 26.0637" fill="#ebcd7b" fill-rule="evenodd"/>
<path transform="matrix(1,0,0,-1,0,113.3858)" d="M53.9651 83.7181C55.6872 83.7181 57.0832 82.3221 57.0832 80.6 57.0832 78.878 55.6872 77.4819 53.9651 77.4819 52.2431 77.4819 50.847 78.878 50.847 80.6 50.847 82.3221 52.2431 83.7181 53.9651 83.7181" fill="#ffffff" fill-rule="evenodd"/>
</g>
</svg>
