<?xml version="1.0" encoding="utf-8"?>
<!-- back_bone_S 效果图模板 -->
<svg version="1.1" xmlns="http://www.w3.org/2000/svg"
	 x="0px" y="0px" viewBox="0 0 107.7168 113.3858"
	 enable-background="new 0 0 107.7168 113.3858" xml:space="preserve">

<!-- 形状路径（Y轴翻转，小孔在上） -->
<path transform="matrix(1,0,0,-1,0,113.3858)" fill="{{COLOR_FILL}}" fill-rule="evenodd" d="M18.235 55.783C18.7948 56.2728 18.7948 57.1127 18.235 57.6028 15.6453 59.9822 14.1058 63.3416 14.1755 66.981 14.3155 73.7697 20.0546 79.2986 27.193 79.5087 32.9321 79.6487 37.3414 76.989 39.0909 73.3499 39.3009 72.7897 39.8608 72.4399 40.4906 72.4399H44.7599C45.4598 72.4399 46.1597 72.8597 46.5097 73.4896 48.2593 76.5692 50.8487 78.5288 53.8583 78.5288 56.7978 78.5288 59.4573 76.5692 61.2068 73.4896 61.5569 72.8597 62.1867 72.4399 62.9566 72.4399H67.2259C67.8557 72.4399 68.4156 72.7897 68.6256 73.3499 70.4452 76.989 74.7845 79.6487 80.5232 79.5087 87.592 79.3687 93.401 73.7697 93.5408 66.981 93.6108 63.2716 92.0013 59.9122 89.4815 57.6028 88.9217 57.1127 88.9217 56.2728 89.4815 55.783 92.0713 53.4036 93.6108 50.114 93.5408 46.4049 93.401 39.6162 87.592 34.0872 80.5232 33.8771 76.8141 33.7371 69.8153 36.6766 67.9955 40.8759 67.7857 41.4357 67.2259 41.7855 66.596 41.7855H54.4181 51.7586 41.1905C40.5607 41.7855 40.0008 41.4357 39.7908 40.8759 37.9712 36.6066 30.9725 33.7371 27.2631 33.8771 20.1946 34.0872 14.3855 39.6162 14.2455 46.4049 14.1058 50.114 15.7153 53.4036 18.235 55.783"/>
<path transform="matrix(1,0,0,-1,0,113.3858)" fill="#ffffff" fill-rule="evenodd" d="M53.8753 74.4282C56.3426 74.4282 58.218 72.1582 57.7244 69.5917 57.4282 68.1114 56.3426 66.9271 54.8623 66.6309 52.1977 65.9401 49.8288 67.9139 49.8288 70.4801 49.9275 72.6514 51.7039 74.4282 53.8753 74.4282"/>

<!-- 背面文字（如 If Lost） -->
<text
	 x="53.86"
	 y="{{TEXT_Y}}"
	 font-family="'back_standard', sans-serif"
	 font-size="{{TEXT_FONT_SIZE}}px"
	 fill="#333333"
	 text-anchor="middle"
	 dominant-baseline="middle">{{TEXT_CONTENT}}</text>

<!-- 背面电话号码 -->
<text
	 x="53.86"
	 y="{{PHONE_Y}}"
	 font-family="'back_standard', sans-serif"
	 font-size="{{PHONE_FONT_SIZE}}px"
	 fill="#333333"
	 text-anchor="middle"
	 dominant-baseline="middle">{{PHONE_NUMBER}}</text>

</svg>
