<?xml version="1.0" encoding="utf-8"?>
<!-- back_heart_L 效果图模板 -->
<svg version="1.1" xmlns="http://www.w3.org/2000/svg"
	 x="0px" y="0px" viewBox="0 0 141.7323 113.3858"
	 enable-background="new 0 0 141.7323 113.3858" xml:space="preserve">

<!-- 形状路径（Y轴翻转，小孔在上） -->
<path transform="matrix(1,0,0,-1,0,113.3858)" fill="{{COLOR_FILL}}" fill-rule="evenodd" d="M69.8686 14.0786C68.5094 14.8158 64.5094 17.3092 62.1553 18.8983 47.5075 28.7844 36.1069 40.7415 30.2145 52.3956 25.9707 60.7907 24.5971 68.7719 26.1031 76.3129 26.9495 80.555 28.7402 84.437 31.4827 87.963 32.3107 89.0291 34.2221 91.0242 35.3058 91.9573 38.7692 94.9346 42.7311 96.8275 46.8524 97.4693 48.0892 97.6603 50.9553 97.6586 52.6629 97.4662 55.98 97.0889 58.8903 96.243 61.4594 94.8977 64.0329 97.8106 67.2554 99.5443 70.7536 99.5443 74.2912 99.5443 77.5477 97.772 80.1351 94.7988 82.5721 96.0979 85.3194 96.9633 88.3412 97.3706 89.6519 97.5475 90.8787 97.6374 92.0486 97.6385 94.134 97.6408 96.0392 97.3613 97.9174 96.7924 103.7109 95.0369 109.3989 90.2472 112.7044 84.3412 114.5509 81.0442 115.5943 77.7268 116.1085 73.5415 116.2627 72.21 116.2627 68.1591 116.0768 66.6978 115.638 63.1244 114.8357 60.035 113.4584 56.552 107.6851 41.9811 92.8831 26.5946 73.489 14.9995L71.905 14.0522C71.4226 13.752 70.4282 13.7837 69.8686 14.0786ZM71.0152 95.0488C73.5985 95.0488 75.6924 92.9548 75.6924 90.3716 75.6924 87.7884 73.5985 85.6945 71.0152 85.6945 68.432 85.6945 66.3381 87.7884 66.3381 90.3716 66.3381 92.9548 68.432 95.0488 71.0152 95.0488"/>

<!-- 背面文字（如 If Lost） -->
<text
	 x="70.87"
	 y="{{TEXT_Y}}"
	 font-family="'back_standard', sans-serif"
	 font-size="{{TEXT_FONT_SIZE}}px"
	 fill="#333333"
	 text-anchor="middle"
	 dominant-baseline="middle">{{TEXT_CONTENT}}</text>

<!-- 背面电话号码 -->
<text
	 x="70.87"
	 y="{{PHONE_Y}}"
	 font-family="'back_standard', sans-serif"
	 font-size="{{PHONE_FONT_SIZE}}px"
	 fill="#333333"
	 text-anchor="middle"
	 dominant-baseline="middle">{{PHONE_NUMBER}}</text>

</svg>
