<svg xmlns="http://www.w3.org/2000/svg" xmlns:xlink="http://www.w3.org/1999/xlink" xmlns:inkscape="http://www.inkscape.org/namespaces/inkscape" version="1.1" width="141.7323" height="113.3858" viewBox="0 0 141.7323 113.3858">
<rect x="0" y="0" width="141.7323" height="113.3858" fill="#FFFFFF"/>

<g inkscape:groupmode="layer" inkscape:label="&#x56FE;&#x5C42; 1">
<path transform="matrix(1,0,0,-1,0,113.3858)" d="M70.8656 86.5746C68.2826 86.5746 66.1887 88.6686 66.1887 91.2518 66.1887 93.8347 68.2826 95.9295 70.8656 95.9295 73.4488 95.9295 75.5427 93.8347 75.5427 91.2518 75.5427 88.6686 73.4488 86.5746 70.8656 86.5746ZM70.8656 102.3307C45.6608 102.3307 25.2286 81.8977 25.2286 56.6921 25.2286 31.487 45.6608 11.0548 70.8656 11.0548 96.0707 11.0548 116.5037 31.487 116.5037 56.6921 116.5037 81.8977 96.0707 102.3307 70.8656 102.3307" fill="#231916" fill-rule="evenodd"/>
</g>
</svg>
