<svg xmlns="http://www.w3.org/2000/svg" xmlns:xlink="http://www.w3.org/1999/xlink" xmlns:inkscape="http://www.inkscape.org/namespaces/inkscape" version="1.1" width="141.7323" height="113.3858" viewBox="0 0 141.7323 113.3858">
<rect x="0" y="0" width="141.7323" height="113.3858" fill="#FFFFFF"/>

<g inkscape:groupmode="layer" inkscape:label="&#x56FE;&#x5C42; 1">
<path transform="matrix(1,0,0,-1,0,113.3858)" d="M13.6145 55.2305C14.5142 56.0177 14.5142 57.3676 13.6145 58.155 9.4527 61.9792 6.9783 67.3781 7.0906 73.2271 7.3157 84.1377 16.539 93.0234 28.0117 93.361 37.2351 93.5858 44.3214 89.3117 47.1334 83.4627 47.4707 82.5627 48.3707 82.0006 49.3829 82.0006H56.2442C57.369 82.0006 58.4935 82.6753 59.0562 83.6878 61.8681 88.6368 66.0297 91.7861 70.8664 91.7861 75.5904 91.7861 79.8647 88.6368 82.6767 83.6878 83.2391 82.6753 84.2513 82.0006 85.4887 82.0006H92.3499C93.3622 82.0006 94.2622 82.5627 94.5995 83.4627 97.524 89.3117 104.4978 93.5858 113.7209 93.361 125.0813 93.136 134.4172 84.1377 134.642 73.2271 134.7545 67.2656 132.1676 61.8667 128.1183 58.155 127.2183 57.3676 127.2183 56.0177 128.1183 55.2305 132.2799 51.406 134.7545 46.1197 134.642 40.1581 134.4172 29.2476 125.0813 20.3618 113.7209 20.0245 107.7596 19.7994 96.5117 24.5237 93.5872 31.2724 93.2496 32.1721 92.3499 32.7345 91.3377 32.7345H71.7661 67.4921 50.5077C49.4955 32.7345 48.5955 32.1721 48.2581 31.2724 45.3336 24.4111 34.0858 19.7994 28.1242 20.0245 16.7638 20.3618 7.4282 29.2476 7.2031 40.1581 6.9783 46.1197 9.5652 51.406 13.6145 55.2305ZM70.8664 87.5075C73.6784 87.5075 75.8154 84.9203 75.253 81.9958 74.9157 80.3086 73.6784 78.9591 71.9912 78.6214 68.9542 77.8343 66.2547 80.0838 66.2547 83.0083 66.3673 85.4827 68.3918 87.5075 70.8664 87.5075" fill="#9f9fa0" fill-rule="evenodd"/>
</g>
</svg>
